<svg xmlns="http://www.w3.org/2000/svg" viewBox="0 0 1200 400" width="1200" height="400">
  <defs>
    <linearGradient id="bg" x1="0%" y1="0%" x2="100%" y2="100%">
      <stop offset="0%" style="stop-color:#0a0a0a"/>
      <stop offset="50%" style="stop-color:#111111"/>
      <stop offset="100%" style="stop-color:#0d0d0d"/>
    </linearGradient>
    <radialGradient id="glow1" cx="18%" cy="55%" r="30%">
      <stop offset="0%" style="stop-color:#E74C3C;stop-opacity:0.15"/>
      <stop offset="100%" style="stop-color:#E74C3C;stop-opacity:0"/>
    </radialGradient>
    <radialGradient id="glow2" cx="30%" cy="30%" r="20%">
      <stop offset="0%" style="stop-color:#E74C3C;stop-opacity:0.08"/>
      <stop offset="100%" style="stop-color:#E74C3C;stop-opacity:0"/>
    </radialGradient>
  </defs>
  <rect width="1200" height="400" fill="url(#bg)"/>
  <rect width="1200" height="400" fill="url(#glow1)"/>
  <rect width="1200" height="400" fill="url(#glow2)"/>

  <circle cx="199" cy="126" r="3.5" fill="white" opacity="0.5"/>
  <circle cx="441" cy="315" r="2.0" fill="white" opacity="0.6"/>
  <circle cx="352" cy="319" r="2.1" fill="white" opacity="0.6"/>
  <circle cx="155" cy="160" r="3.4" fill="white" opacity="0.7"/>
  <circle cx="389" cy="368" r="1.8" fill="white" opacity="0.4"/>
  <circle cx="386" cy="44" r="1.6" fill="white" opacity="0.6"/>
  <circle cx="359" cy="327" r="1.9" fill="white" opacity="0.7"/>
  <circle cx="297" cy="315" r="3.2" fill="white" opacity="0.4"/>
  <circle cx="37" cy="177" r="1.6" fill="white" opacity="0.3"/>
  <circle cx="51" cy="281" r="3.0" fill="white" opacity="0.6"/>
  <circle cx="468" cy="302" r="2.8" fill="white" opacity="0.3"/>
  <circle cx="163" cy="160" r="3.2" fill="white" opacity="0.3"/>
  <circle cx="375" cy="329" r="3.2" fill="white" opacity="0.3"/>
  <circle cx="419" cy="217" r="2.5" fill="white" opacity="0.6"/>
  <circle cx="355" cy="313" r="3.2" fill="white" opacity="0.8"/>
  <circle cx="39" cy="178" r="2.0" fill="white" opacity="0.4"/>
  <circle cx="125" cy="134" r="3.4" fill="white" opacity="0.5"/>
  <circle cx="157" cy="45" r="2.6" fill="white" opacity="0.5"/>
  <circle cx="39" cy="286" r="3.3" fill="white" opacity="0.7"/>
  <circle cx="315" cy="243" r="3.2" fill="white" opacity="0.3"/>
  <circle cx="403" cy="82" r="2.4" fill="white" opacity="0.3"/>
  <circle cx="421" cy="242" r="3.2" fill="white" opacity="0.5"/>
  <circle cx="374" cy="230" r="1.6" fill="white" opacity="0.4"/>
  <circle cx="475" cy="94" r="3.4" fill="white" opacity="0.7"/>
  <circle cx="358" cy="163" r="2.1" fill="white" opacity="0.4"/>
  <circle cx="317" cy="45" r="2.2" fill="white" opacity="0.7"/>
  <circle cx="423" cy="138" r="1.7" fill="white" opacity="0.8"/>
  <circle cx="303" cy="196" r="2.5" fill="white" opacity="0.7"/>
  <circle cx="173" cy="296" r="3.5" fill="white" opacity="0.3"/>
  <circle cx="308" cy="94" r="2.2" fill="white" opacity="0.7"/>
  <circle cx="240" cy="190" r="2.0" fill="white" opacity="0.4"/>
  <circle cx="459" cy="216" r="3.4" fill="white" opacity="0.7"/>
  <circle cx="440" cy="186" r="1.8" fill="white" opacity="0.5"/>
  <circle cx="346" cy="335" r="3.3" fill="white" opacity="0.8"/>
  <circle cx="266" cy="339" r="2.8" fill="white" opacity="0.6"/>
  <circle cx="318" cy="26" r="2.1" fill="white" opacity="0.5"/>
  <circle cx="131" cy="373" r="2.8" fill="white" opacity="0.3"/>
  <circle cx="351" cy="104" r="3.5" fill="white" opacity="0.7"/>
  <circle cx="347" cy="258" r="3.1" fill="white" opacity="0.4"/>
  <circle cx="453" cy="355" r="1.7" fill="white" opacity="0.4"/>
  <circle cx="406" cy="293" r="2.0" fill="white" opacity="0.8"/>
  <circle cx="94" cy="128" r="3.5" fill="white" opacity="0.4"/>
  <circle cx="354" cy="368" r="2.5" fill="white" opacity="0.4"/>
  <circle cx="101" cy="190" r="3.2" fill="white" opacity="0.5"/>
  <circle cx="164" cy="331" r="2.1" fill="white" opacity="0.6"/>
  <circle cx="376" cy="343" r="3.5" fill="white" opacity="0.7"/>
  <circle cx="214" cy="125" r="2.1" fill="white" opacity="0.5"/>
  <circle cx="410" cy="219" r="1.7" fill="white" opacity="0.4"/>
  <circle cx="235" cy="49" r="2.7" fill="white" opacity="0.5"/>
  <circle cx="212" cy="172" r="1.7" fill="white" opacity="0.7"/>
  <circle cx="382" cy="297" r="1.9" fill="white" opacity="0.7"/>
  <circle cx="169" cy="355" r="1.8" fill="white" opacity="0.7"/>
  <circle cx="427" cy="148" r="1.9" fill="white" opacity="0.8"/>
  <circle cx="189" cy="98" r="1.8" fill="white" opacity="0.8"/>
  <circle cx="417" cy="187" r="3.1" fill="white" opacity="0.5"/>

  <line x1="411" y1="90" x2="488" y2="140" stroke="white" stroke-width="0.5" opacity="0.12"/>
  <line x1="154" y1="182" x2="197" y2="176" stroke="white" stroke-width="0.5" opacity="0.12"/>
  <line x1="217" y1="324" x2="283" y2="287" stroke="white" stroke-width="0.5" opacity="0.12"/>
  <line x1="467" y1="268" x2="543" y2="259" stroke="white" stroke-width="0.5" opacity="0.12"/>
  <line x1="141" y1="139" x2="216" y2="183" stroke="white" stroke-width="0.5" opacity="0.12"/>
  <line x1="356" y1="83" x2="397" y2="36" stroke="white" stroke-width="0.5" opacity="0.12"/>
  <line x1="355" y1="312" x2="412" y2="303" stroke="white" stroke-width="0.5" opacity="0.12"/>
  <line x1="57" y1="85" x2="123" y2="110" stroke="white" stroke-width="0.5" opacity="0.12"/>
  <line x1="300" y1="114" x2="368" y2="122" stroke="white" stroke-width="0.5" opacity="0.12"/>
  <line x1="169" y1="328" x2="221" y2="310" stroke="white" stroke-width="0.5" opacity="0.12"/>
  <line x1="344" y1="353" x2="415" y2="312" stroke="white" stroke-width="0.5" opacity="0.12"/>
  <line x1="96" y1="171" x2="186" y2="146" stroke="white" stroke-width="0.5" opacity="0.12"/>
  <line x1="237" y1="49" x2="306" y2="53" stroke="white" stroke-width="0.5" opacity="0.12"/>
  <line x1="409" y1="199" x2="461" y2="247" stroke="white" stroke-width="0.5" opacity="0.12"/>

  <!-- 分隔线 4:5 位置 -->
  <line x1="533" y1="50" x2="533" y2="350" stroke="white" stroke-width="0.5" opacity="0.12"/>

  <!-- 主标题 -->
  <text x="560" y="120" font-family="'SF Pro Display','Helvetica Neue',Arial,sans-serif" font-size="52" font-weight="800" fill="white" letter-spacing="4">AGENT GUARDRAILS</text>
  
  <!-- 中文项目名 -->
  <text x="560" y="180" font-family="'Noto Sans SC','PingFang SC','Microsoft YaHei',sans-serif" font-size="22" font-weight="500" fill="white" opacity="0.9" letter-spacing="3">Agent 安全护栏</text>
  
  <!-- 功能描述 -->
  <text x="560" y="220" font-family="'Noto Sans SC','PingFang SC','Microsoft YaHei',sans-serif" font-size="14" font-weight="300" fill="white" opacity="0.5" letter-spacing="1.5">输入验证 · 输出过滤 · PII脱敏 · 速率限制 · 审计日志</text>
  
  <!-- 技术栈 -->
  <text x="560" y="270" font-family="'SF Mono','Fira Code','Consolas',monospace" font-size="12" fill="white" opacity="0.4" letter-spacing="1.5">FastAPI · Python · Regex</text>
  
  <!-- 底部装饰线 -->
  <line x1="560" y1="310" x2="1160" y2="310" stroke="white" stroke-width="0.5" opacity="0.1"/>
  
  <!-- 底部关键词 -->
  <text x="560" y="340" font-family="'SF Mono','Fira Code','Consolas',monospace" font-size="10" fill="white" opacity="0.3" letter-spacing="1">SECURITY · GUARDRAILS · AI SAFETY · PII</text>
</svg>